<svg width="14" height="14" viewBox="0 0 14 14" fill="none" xmlns="http://www.w3.org/2000/svg">
<g clip-path="url(#clip0_1_78)">
<path d="M6.97573 1.34999C8.78006 1.34999 8.99374 1.35791 9.70334 1.38956C10.3628 1.41858 10.7189 1.52937 10.9563 1.6217C11.2703 1.74304 11.4971 1.89076 11.7319 2.12554C11.9693 2.36295 12.1144 2.58718 12.2357 2.90109C12.3281 3.1385 12.4389 3.49726 12.4679 4.1541C12.4995 4.86634 12.5074 5.08001 12.5074 6.88171C12.5074 8.68604 12.4995 8.89972 12.4679 9.60931C12.4389 10.2688 12.3281 10.6249 12.2357 10.8623C12.1144 11.1762 11.9667 11.4031 11.7319 11.6379C11.4945 11.8753 11.2703 12.0204 10.9563 12.1417C10.7189 12.234 10.3602 12.3448 9.70334 12.3739C8.9911 12.4055 8.77743 12.4134 6.97573 12.4134C5.17139 12.4134 4.95772 12.4055 4.24812 12.3739C3.58864 12.3448 3.23252 12.234 2.99511 12.1417C2.6812 12.0204 2.45434 11.8726 2.21956 11.6379C1.98215 11.4005 1.83706 11.1762 1.71572 10.8623C1.62339 10.6249 1.5126 10.2662 1.48358 9.60931C1.45193 8.89708 1.44401 8.6834 1.44401 6.88171C1.44401 5.07737 1.45193 4.8637 1.48358 4.1541C1.5126 3.49462 1.62339 3.1385 1.71572 2.90109C1.83706 2.58718 1.98479 2.36031 2.21956 2.12554C2.45697 1.88813 2.6812 1.74304 2.99511 1.6217C3.23252 1.52937 3.59128 1.41858 4.24812 1.38956C4.95772 1.35791 5.17139 1.34999 6.97573 1.34999ZM6.97573 0.133911C5.14237 0.133911 4.91288 0.141825 4.19272 0.17348C3.47521 0.205135 2.98192 0.321203 2.55458 0.487392C2.10877 0.661495 1.73155 0.890994 1.35696 1.26822C0.979739 1.6428 0.75024 2.02002 0.576137 2.46319C0.409948 2.89317 0.29388 3.38383 0.262225 4.10134C0.23057 4.82413 0.222656 5.05363 0.222656 6.88698C0.222656 8.72034 0.23057 8.94983 0.262225 9.66999C0.29388 10.3875 0.409948 10.8808 0.576137 11.3081C0.75024 11.7539 0.979739 12.1312 1.35696 12.5057C1.73155 12.8803 2.10877 13.1125 2.55194 13.2839C2.98192 13.4501 3.47257 13.5662 4.19009 13.5978C4.91024 13.6295 5.13974 13.6374 6.97309 13.6374C8.80644 13.6374 9.03594 13.6295 9.75609 13.5978C10.4736 13.5662 10.9669 13.4501 11.3942 13.2839C11.8374 13.1125 12.2146 12.8803 12.5892 12.5057C12.9638 12.1312 13.1959 11.7539 13.3674 11.3108C13.5336 10.8808 13.6497 10.3901 13.6813 9.67262C13.713 8.95247 13.7209 8.72297 13.7209 6.88962C13.7209 5.05627 13.713 4.82677 13.6813 4.10662C13.6497 3.3891 13.5336 2.89581 13.3674 2.46847C13.2012 2.02002 12.9717 1.6428 12.5945 1.26822C12.2199 0.893632 11.8427 0.661495 11.3995 0.49003C10.9695 0.323841 10.4789 0.207773 9.76137 0.176118C9.03858 0.141825 8.80908 0.133911 6.97573 0.133911Z" fill="white"/>
<path d="M6.9757 3.41821C5.06057 3.41821 3.50684 4.97195 3.50684 6.88708C3.50684 8.8022 5.06057 10.3559 6.9757 10.3559C8.89083 10.3559 10.4446 8.8022 10.4446 6.88708C10.4446 4.97195 8.89083 3.41821 6.9757 3.41821ZM6.9757 9.13722C5.73324 9.13722 4.72555 8.12954 4.72555 6.88708C4.72555 5.64462 5.73324 4.63693 6.9757 4.63693C8.21816 4.63693 9.22584 5.64462 9.22584 6.88708C9.22584 8.12954 8.21816 9.13722 6.9757 9.13722Z" fill="white"/>
<path d="M11.3915 3.28103C11.3915 3.72948 11.0275 4.09088 10.5817 4.09088C10.1332 4.09088 9.77185 3.72684 9.77185 3.28103C9.77185 2.83259 10.1359 2.47119 10.5817 2.47119C11.0275 2.47119 11.3915 2.83522 11.3915 3.28103Z" fill="white"/>
</g>
<defs>
<clipPath id="clip0_1_78">
<rect width="13.5061" height="13.5061" fill="white" transform="translate(0.222656 0.133911)"/>
</clipPath>
</defs>
</svg>
